HIERARCHY
ROOT Hips
{
	OFFSET	0.000000	0.000000	0.000000
	CHANNELS 6 Xposition Yposition Zposition Zrotation Xrotation Yrotation
	JOINT LeftHip
	{
		OFFSET	4.740440	-3.195970	-0.322709
		CHANNELS 3 Zrotation Xrotation Yrotation
		JOINT LeftKnee
		{
			OFFSET	-1.605680	-15.592300	1.005510
			CHANNELS 3 Zrotation Xrotation Yrotation
			JOINT LeftAnkle
			{
				OFFSET	-0.632401	-16.421000	-1.413730
				CHANNELS 3 Zrotation Xrotation Yrotation
				End Site
				{
					OFFSET	0.008423	-3.933000	-2.776750
				}
			}
		}
	}
	JOINT RightHip
	{
		OFFSET	-4.740440	-3.195970	-0.322709
		CHANNELS 3 Zrotation Xrotation Yrotation
		JOINT RightKnee
		{
			OFFSET	1.605680	-15.592300	1.005510
			CHANNELS 3 Zrotation Xrotation Yrotation
			JOINT RightAnkle
			{
				OFFSET	0.632401	-16.421000	-1.413730
				CHANNELS 3 Zrotation Xrotation Yrotation
				End Site
				{
					OFFSET	-0.008423	-3.933000	-2.776750
				}
			}
		}
	}
	JOINT Chest
	{
		OFFSET	0.000000	3.468200	0.078401
		CHANNELS 3 Zrotation Xrotation Yrotation
		JOINT LeftCollar
		{
			OFFSET	3.857650	15.070700	-0.011583
			CHANNELS 3 Zrotation Xrotation Yrotation
			JOINT LeftShoulder
			{
				OFFSET	3.979720	-1.940530	-0.165223
				CHANNELS 3 Zrotation Xrotation Yrotation
				JOINT LeftElbow
				{
					OFFSET	0.615844	-10.986600	-0.673886
					CHANNELS 3 Zrotation Xrotation Yrotation
					JOINT LeftWrist
					{
						OFFSET	0.826843	-10.854500	1.034220
						CHANNELS 3 Zrotation Xrotation Yrotation
						End Site
						{
							OFFSET	-1.679080	-8.456540	0.936217
						}
					}
				}
			}
		}
		JOINT RightCollar
		{
			OFFSET	-3.857650	15.070700	-0.011583
			CHANNELS 3 Zrotation Xrotation Yrotation
			JOINT RightShoulder
			{
				OFFSET	-3.979720	-1.940530	-0.165223
				CHANNELS 3 Zrotation Xrotation Yrotation
				JOINT RightElbow
				{
					OFFSET	-0.615845	-10.986600	-0.673886
					CHANNELS 3 Zrotation Xrotation Yrotation
					JOINT RightWrist
					{
						OFFSET	-0.826843	-10.854500	1.034220
						CHANNELS 3 Zrotation Xrotation Yrotation
						End Site
						{
							OFFSET	1.679080	-8.456540	0.936217
						}
					}
				}
			}
		}
		JOINT Neck
		{
			OFFSET	0.000000	15.101400	0.055730
			CHANNELS 3 Zrotation Xrotation Yrotation
			JOINT Head
			{
				OFFSET	0.000000	4.185120	1.488260
				CHANNELS 3 Zrotation Xrotation Yrotation
				End Site
				{
					OFFSET	0.000000	7.773420	-0.106016
				}
			}
		}
	}
}
MOTION
Frames:    21
Frame Time: 0.016667
1.164026	38.788666	-0.294665	3.851116	-8.214214	-16.696472	-5.455735	5.349837	2.475557	-2.731540	-0.593857	8.036057	3.188725	1.176651	6.609050	-20.772100	-3.370870	-6.727252	-1.277981	9.984572	0.057488	14.187749	0.711449	5.021805	-5.176654	5.255752	4.700033	-6.330307	0.848928	2.897921	4.291502	-6.712725	-3.900891	-1.580715	6.251178	-4.269485	5.294894	-6.467844	-10.399161	-5.128282	-1.053747	3.569418	1.558590	-2.049646	-2.765325	-1.459515	-5.943185	12.329503	-14.613630	-0.753607	13.673573	-5.226010	9.657029	-7.626337	4.374074	5.378493	-7.347503	
1.165609	38.788265	-0.294807	3.851116	-8.214214	-16.696472	-5.453607	5.358677	2.506214	-2.743938	-0.621076	8.005641	3.201024	1.195005	6.607100	-20.777296	-3.374427	-6.713186	-1.271456	9.988404	0.050274	14.188548	0.710303	5.014715	-5.165656	5.279410	4.737305	-6.348711	0.863462	2.888839	4.292584	-6.748092	-3.929907	-1.582515	6.256390	-4.233499	5.293075	-6.476191	-10.434557	-5.116807	-1.036355	3.572634	1.561283	-2.072565	-2.796816	-1.470766	-5.949362	12.324192	-14.635412	-0.756594	13.670378	-5.224665	9.747837	-7.680790	4.437533	5.337402	-7.295575	
1.167619	38.787769	-0.294909	3.851116	-8.214214	-16.696472	-5.451755	5.366548	2.533314	-2.742284	-0.641609	7.981086	3.198952	1.209318	6.603281	-20.782869	-3.378244	-6.698124	-1.265091	9.991999	0.047963	14.190092	0.708271	5.001853	-5.155415	5.301641	4.772350	-6.348658	0.859516	2.857299	4.279766	-6.761224	-3.935743	-1.576321	6.273746	-4.199074	5.284423	-6.497113	-10.468084	-5.105898	-1.019970	3.575700	1.568729	-2.092094	-2.824787	-1.505678	-5.965197	12.313440	-14.632071	-0.755995	13.688614	-5.227432	9.772007	-7.725543	4.442863	5.350621	-7.281960	
1.168377	38.787888	-0.296034	3.856272	-8.216278	-16.684904	-5.454884	5.373818	2.542236	-2.739185	-0.659279	7.964080	3.195963	1.222647	6.599512	-20.791939	-3.375966	-6.699985	-1.261014	9.994482	0.040414	14.190213	0.708162	5.001069	-5.151947	5.322395	4.794551	-6.322378	0.875623	2.833749	4.241818	-6.791101	-3.946172	-1.569217	6.291666	-4.168567	5.277878	-6.510386	-10.495320	-5.105294	-1.019793	3.559004	1.558957	-2.106462	-2.841885	-1.508263	-5.966371	12.312639	-14.625549	-0.754335	13.723396	-5.230409	9.761198	-7.762347	4.450346	5.457890	-7.269354	
1.170493	38.787689	-0.297643	3.862477	-8.218743	-16.670908	-5.461518	5.390630	2.543266	-2.734020	-0.686133	7.952378	3.193081	1.235527	6.595877	-20.808327	-3.376995	-6.687451	-1.248330	10.002289	0.015056	14.190213	0.708162	5.001069	-5.161785	5.324993	4.795477	-6.299271	0.892304	2.826511	4.227302	-6.806007	-3.951880	-1.562151	6.310885	-4.162825	5.274042	-6.508934	-10.492581	-5.101182	-1.019774	3.545372	1.558957	-2.106462	-2.841885	-1.480029	-5.955004	12.344172	-14.655387	-0.751800	13.696422	-5.217822	9.820199	-7.785350	4.512645	5.480016	-7.226040	
1.171993	38.787689	-0.299202	3.869020	-8.221351	-16.656130	-5.467282	5.393707	2.530448	-2.729501	-0.698998	7.954159	3.190356	1.247653	6.592471	-20.822428	-3.375868	-6.682862	-1.239396	10.007775	-0.002795	14.190213	0.708162	5.001069	-5.167458	5.326880	4.781693	-6.299271	0.892304	2.826511	4.240310	-6.803667	-3.952228	-1.561121	6.330259	-4.157609	5.288571	-6.449486	-10.469125	-5.101182	-1.019774	3.545372	1.586586	-2.094954	-2.832666	-1.479616	-5.956206	12.343422	-14.685419	-0.755551	13.690377	-5.211402	9.884388	-7.795468	4.519525	5.471704	-7.207233	
1.172108	38.788094	-0.300603	3.876088	-8.224152	-16.640205	-5.472197	5.400800	2.532921	-2.726676	-0.714856	7.939302	3.187648	1.259735	6.589053	-20.831190	-3.370198	-6.695376	-1.238761	10.008118	-0.004044	14.190213	0.708162	5.001069	-5.165409	5.337940	4.770013	-6.308058	0.884450	2.821681	4.254499	-6.795445	-3.941126	-1.558425	6.345879	-4.163651	5.302865	-6.389394	-10.445450	-5.110127	-1.027727	3.540707	1.611367	-2.084621	-2.824406	-1.480602	-5.957891	12.340971	-14.710889	-0.759042	13.686621	-5.214745	9.944947	-7.810648	4.474321	5.468978	-7.212300	
1.171787	38.788712	-0.301377	3.889443	-8.214369	-16.622564	-5.479082	5.395084	2.536195	-2.724148	-0.731360	7.921427	3.184953	1.271733	6.585669	-20.842199	-3.376898	-6.714787	-1.238761	10.008118	-0.004044	14.190213	0.708162	5.001069	-5.163370	5.337697	4.757123	-6.307551	0.904216	2.836932	4.252940	-6.809978	-3.949188	-1.546090	6.367742	-4.168198	5.297207	-6.336349	-10.503227	-5.108160	-1.018454	3.557744	1.612712	-2.096823	-2.841064	-1.485197	-5.960595	12.338460	-14.723778	-0.760808	13.684726	-5.201567	9.987329	-7.828948	4.455297	5.487602	-7.308729	
1.171190	38.789444	-0.302209	3.904552	-8.202608	-16.603186	-5.487015	5.386692	2.536190	-2.721577	-0.747261	7.905059	3.182315	1.283481	6.582367	-20.854445	-3.385296	-6.736452	-1.238353	10.008473	-0.008104	14.189762	0.708793	5.005023	-5.161078	5.336507	4.742970	-6.303769	0.918306	2.845266	4.247458	-6.818201	-3.950843	-1.537419	6.381869	-4.174377	5.280523	-6.364284	-10.510443	-5.102544	-1.009563	3.566125	1.607677	-2.109939	-2.850189	-1.500262	-5.967422	12.333821	-14.723778	-0.760808	13.684726	-5.146915	10.039171	-7.859024	4.376070	5.447403	-7.306636	
1.170235	38.790268	-0.303223	3.919748	-8.191672	-16.582939	-5.495856	5.376400	2.525937	-2.718408	-0.760114	7.898177	3.179856	1.294420	6.579271	-20.867048	-3.392664	-6.758651	-1.237205	10.009460	-0.019121	14.188499	0.710488	5.015753	-5.158280	5.336993	4.728325	-6.297102	0.923824	2.844711	4.240164	-6.817257	-3.944397	-1.538383	6.380588	-4.183034	5.263701	-6.358284	-10.590235	-5.094702	-1.006949	3.553830	1.601130	-2.116575	-2.839030	-1.515775	-5.974461	12.329045	-14.723778	-0.760808	13.684726	-5.154515	10.061969	-7.871924	4.374787	5.496707	-7.313814	
1.169481	38.791382	-0.302719	3.935059	-8.181374	-16.561920	-5.505472	5.364472	2.507010	-2.716288	-0.766348	7.898294	3.178491	1.300485	6.577544	-20.883440	-3.394567	-6.772210	-1.230161	10.006661	-0.042160	14.186955	0.712557	5.028866	-5.154903	5.339022	4.713294	-6.291676	0.928204	2.843540	4.234422	-6.815467	-3.938435	-1.527897	6.394161	-4.210454	5.255755	-6.326673	-10.609741	-5.092491	-1.012810	3.530987	1.600841	-2.115307	-2.817840	-1.531977	-5.981794	12.324048	-14.723778	-0.760808	13.684726	-5.160120	10.104208	-7.888712	4.373955	5.522249	-7.292661	
1.169225	38.792530	-0.299645	3.943789	-8.175602	-16.549688	-5.511012	5.357574	2.495253	-2.716288	-0.766348	7.898294	3.178491	1.300485	6.577544	-20.898840	-3.387292	-6.764256	-1.215589	9.998641	-0.078977	14.185262	0.714811	5.043193	-5.146551	5.347408	4.706998	-6.293148	0.934970	2.834335	4.235505	-6.816044	-3.925015	-1.539445	6.376550	-4.220117	5.254197	-6.327411	-10.614569	-5.089860	-1.018916	3.506470	1.595354	-2.116729	-2.807158	-1.543163	-5.986970	12.330788	-14.723778	-0.760808	13.684726	-5.170738	10.115769	-7.901089	4.351607	5.567469	-7.291534	
1.169050	38.793350	-0.295696	3.943789	-8.175602	-16.549688	-5.511012	5.357574	2.495253	-2.716288	-0.766348	7.898294	3.178491	1.300485	6.577544	-20.906773	-3.375331	-6.743370	-1.200917	9.989523	-0.116139	14.183501	0.717145	5.058053	-5.131727	5.363781	4.712753	-6.303647	0.935519	2.820856	4.245408	-6.811153	-3.908476	-1.585742	6.378268	-4.231355	5.284370	-6.329300	-10.662434	-5.087113	-1.025465	3.480389	1.583519	-2.122126	-2.813286	-1.547425	-5.988766	12.355424	-14.723778	-0.760808	13.684726	-5.185280	10.101369	-7.909695	4.330220	5.629692	-7.296694	
1.168828	38.794182	-0.291733	3.943789	-8.175602	-16.549688	-5.511012	5.357574	2.495253	-2.716288	-0.766348	7.898294	3.178491	1.300485	6.577544	-20.914476	-3.363191	-6.723137	-1.186592	9.980152	-0.152402	14.181767	0.719447	5.072686	-5.119735	5.372835	4.704642	-6.322591	0.939911	2.812661	4.267958	-6.803781	-3.882949	-1.631372	6.378957	-4.241932	5.315016	-6.334655	-10.698949	-5.081352	-1.026514	3.469637	1.573228	-2.127223	-2.823238	-1.550394	-5.990015	12.362432	-14.719585	-0.764947	13.703988	-5.199033	10.092730	-7.903363	4.315318	5.664591	-7.324473	
1.168674	38.794975	-0.287878	3.943789	-8.175602	-16.549688	-5.511012	5.357574	2.495253	-2.716288	-0.766348	7.898294	3.178491	1.300485	6.577544	-20.922125	-3.351477	-6.703065	-1.172502	9.971106	-0.187668	14.180125	0.721629	5.086531	-5.106318	5.375496	4.674556	-6.342889	0.948534	2.826676	4.290179	-6.795294	-3.863268	-1.663374	6.380859	-4.255483	5.335445	-6.350092	-10.703403	-5.075076	-1.022618	3.480276	1.562785	-2.132546	-2.835226	-1.553587	-5.991426	12.368707	-14.721512	-0.771617	13.727934	-5.204620	10.100531	-7.878727	4.304328	5.653797	-7.324642	
1.168529	38.796272	-0.285661	3.952072	-8.178907	-16.531105	-5.518194	5.360077	2.477933	-2.716288	-0.766348	7.898294	3.178491	1.300485	6.577544	-20.939377	-3.332755	-6.699335	-1.158643	9.961985	-0.222191	14.178526	0.723753	5.100004	-5.098648	5.379651	4.620647	-6.361689	0.951162	2.853896	4.309910	-6.779776	-3.844603	-1.690812	6.374146	-4.290478	5.352266	-6.357061	-10.693049	-5.070076	-1.018316	3.497364	1.553766	-2.137657	-2.852179	-1.557328	-5.993104	12.376594	-14.717946	-0.777697	13.754188	-5.198378	10.118591	-7.852353	4.292209	5.643174	-7.309968	
1.168484	38.797501	-0.283631	3.960235	-8.182120	-16.512667	-5.525248	5.362516	2.460738	-2.716288	-0.766348	7.898294	3.178491	1.300485	6.577544	-20.956413	-3.314940	-6.695671	-1.145085	9.953570	-0.255450	14.177044	0.725708	5.112452	-5.089438	5.383898	4.563405	-6.378607	0.946257	2.892100	4.317103	-6.757329	-3.839491	-1.707711	6.364776	-4.322328	5.360983	-6.344049	-10.739219	-5.067811	-1.014940	3.519058	1.547050	-2.142323	-2.873693	-1.561303	-5.994773	12.383500	-14.720462	-0.786452	13.785560	-5.183792	10.140285	-7.825492	4.286993	5.646075	-7.282186	
1.168501	38.798618	-0.281904	3.968068	-8.185212	-16.494970	-5.532576	5.362544	2.436128	-2.715523	-0.764435	7.906553	3.178491	1.300485	6.577544	-20.972500	-3.298579	-6.692844	-1.132657	9.946103	-0.285752	14.175733	0.727455	5.123539	-5.081098	5.387874	4.509698	-6.389743	0.938353	2.922537	4.308655	-6.729605	-3.836746	-1.714660	6.355638	-4.349057	5.366200	-6.317039	-10.834245	-5.063454	-1.010805	3.537110	1.537629	-2.147482	-2.888216	-1.564135	-5.996017	12.383269	-14.723029	-0.795472	13.817910	-5.185588	10.133635	-7.793481	4.287773	5.700307	-7.298553	
1.168731	38.799644	-0.280105	3.975414	-8.188092	-16.478415	-5.540136	5.359436	2.402467	-2.713846	-0.760064	7.925118	3.178491	1.300485	6.577544	-20.987484	-3.282742	-6.690435	-1.121592	9.938124	-0.308662	14.175076	0.728270	5.128846	-5.073885	5.391493	4.460882	-6.403040	0.933688	2.953559	4.303675	-6.706735	-3.837849	-1.722890	6.349053	-4.377654	5.381478	-6.318429	-10.835142	-5.056743	-1.005918	3.550672	1.527107	-2.152928	-2.901040	-1.566735	-5.997200	12.381199	-14.725654	-0.804751	13.851209	-5.192997	10.127894	-7.763418	4.298429	5.750584	-7.318484	
1.169210	38.800568	-0.278338	3.982331	-8.190808	-16.462822	-5.547411	5.355916	2.368707	-2.712065	-0.755451	7.944705	3.178491	1.300485	6.577544	-21.001507	-3.267676	-6.688438	-1.111860	9.929974	-0.324823	14.175076	0.728270	5.128846	-5.067302	5.394882	4.415380	-6.416090	0.929903	2.983091	4.299637	-6.685925	-3.839584	-1.728934	6.342999	-4.409760	5.394147	-6.317948	-10.836592	-5.050442	-1.001371	3.563207	1.518262	-2.157868	-2.916361	-1.569740	-5.998588	12.382660	-14.728083	-0.813377	13.882235	-5.188533	10.120244	-7.737775	4.306829	5.787619	-7.336392	
1.170199	38.800732	-0.279544	3.988643	-8.193275	-16.448627	-5.551875	5.361892	2.369748	-2.713412	-0.758821	7.930165	3.178491	1.300485	6.577544	-21.013378	-3.264529	-6.688639	-1.105527	9.932889	-0.337226	14.175076	0.728270	5.128846	-5.060464	5.398026	4.371861	-6.428854	0.926207	3.011980	4.297391	-6.674390	-3.840588	-1.719570	6.335779	-4.446338	5.385931	-6.299429	-10.865458	-5.042880	-0.996325	3.574165	1.507968	-2.163222	-2.929106	-1.572581	-5.999880	12.383874	-14.730392	-0.821626	13.911907	-5.171507	10.110295	-7.715209	4.308377	5.813582	-7.352957	
